<svg width="114" height="72" viewBox="0 0 114 72" fill="none" xmlns="http://www.w3.org/2000/svg">
<g clip-path="url(#clip0_3155_60605)">
<path fill-rule="evenodd" clip-rule="evenodd" d="M36.9688 37.3359H42.6806V39.1528H39.1076V41.0162H40.296C41.0966 41.0162 42.1257 41.1132 42.9013 41.881C43.2335 42.2165 43.6463 42.8331 43.6463 43.8259C43.6463 44.6267 43.3852 45.3384 42.9013 45.8251C42.2198 46.5134 41.2387 46.6647 40.1136 46.6647H36.9688V37.3359ZM39.9466 44.9292C40.2403 44.9292 40.7625 44.906 41.0947 44.6325C41.206 44.5356 41.4518 44.2796 41.4518 43.8085C41.4518 43.3373 41.2291 43.0813 41.039 42.9436C40.7069 42.7032 40.1674 42.6954 39.9466 42.6954H39.0999V44.935H39.9466V44.9273V44.9292Z" fill="black"/>
<path fill-rule="evenodd" clip-rule="evenodd" d="M49.3972 40.4204H51.3939V46.6602H49.3972V45.9078C48.8577 46.7474 48.082 46.8754 47.5675 46.8754C46.6804 46.8754 45.9355 46.6505 45.2539 45.9234C44.605 45.2272 44.3516 44.4109 44.3516 43.5868C44.3516 42.5397 44.7394 41.642 45.3096 41.0661C45.8491 40.5212 46.5998 40.2109 47.4561 40.2109C47.9783 40.2109 48.8269 40.3389 49.3972 41.1223V40.4184V40.4204ZM46.8628 42.3962C46.6574 42.6037 46.404 42.9721 46.404 43.5325C46.404 44.0929 46.642 44.4516 46.8168 44.6533C47.0932 44.95 47.5214 45.1419 47.9975 45.1419C48.4007 45.1419 48.7732 44.9732 49.0343 44.7095C49.2954 44.4613 49.5181 44.0696 49.5181 43.5345C49.5181 43.0865 49.3511 42.6696 49.0592 42.3904C48.7578 42.0937 48.3143 41.958 47.9495 41.958C47.5214 41.9503 47.1259 42.1345 46.8648 42.3982L46.8628 42.3962Z" fill="black"/>
<path fill-rule="evenodd" clip-rule="evenodd" d="M52.5938 40.4219H54.5886V42.5897H56.8234V40.4219H58.8182V46.6617H56.8234V44.2127H54.5886V46.6617H52.5938V40.4219Z" fill="black"/>
<path fill-rule="evenodd" clip-rule="evenodd" d="M60.0156 40.4219H62.0124V42.9019L64.0321 40.4219H66.5108L63.8651 43.3169L66.6932 46.6617H64.1185L62.0124 43.8928V46.6617H60.0156V40.4219Z" fill="black"/>
<path fill-rule="evenodd" clip-rule="evenodd" d="M40.2231 25.332C41.0237 25.332 41.9107 25.4445 42.6461 26.0999C43.439 26.796 43.5484 27.7248 43.5484 28.3647C43.5484 29.5417 43.1049 30.1971 42.7555 30.5655C42.0182 31.3179 41.0525 31.3896 40.4036 31.3896H39.1038V34.6608H36.9727V25.332H40.2212H40.2231ZM39.098 29.627H39.8583C40.1521 29.627 40.6589 29.6115 41.0064 29.2741C41.1965 29.0821 41.3559 28.7544 41.3559 28.355C41.3559 27.9556 41.2215 27.6434 41.0064 27.4436C40.6897 27.1392 40.2308 27.0907 39.818 27.0907H39.098V29.627Z" fill="black"/>
<path fill-rule="evenodd" clip-rule="evenodd" d="M48.7565 28.4243H50.7533V34.6641H48.7565V33.9117C48.217 34.7514 47.4414 34.8793 46.9268 34.8793C46.0398 34.8793 45.2949 34.6544 44.6133 33.9273C43.9644 33.2311 43.7109 32.4148 43.7109 31.5907C43.7109 30.5436 44.0988 29.6459 44.669 29.07C45.2085 28.5251 45.9592 28.2148 46.8155 28.2148C47.3377 28.2148 48.1863 28.3428 48.7565 29.1262V28.4223V28.4243ZM46.2203 30.4001C46.0149 30.6076 45.7614 30.976 45.7614 31.5364C45.7614 32.0968 45.9995 32.4555 46.1742 32.6572C46.4507 32.9539 46.8788 33.1458 47.355 33.1458C47.7582 33.1458 48.1306 32.9771 48.3917 32.7134C48.6528 32.4652 48.8756 32.0735 48.8756 31.5384C48.8756 31.0904 48.7085 30.6735 48.4167 30.3943C48.1153 30.0977 47.6718 29.9619 47.307 29.9619C46.8865 29.9542 46.4833 30.1384 46.2222 30.4021L46.2203 30.4001Z" fill="black"/>
<path fill-rule="evenodd" clip-rule="evenodd" d="M53.9499 28.4231V31.9909L56.5802 28.4231H58.4329V34.6629H56.4362V31.0388L53.8059 34.6629H51.9531V28.4231H53.9499ZM57.7052 25.9042C57.5382 26.4084 57.2061 26.8408 56.8182 27.0968C56.296 27.4497 55.6548 27.4884 55.194 27.4884C54.7332 27.4884 54.1015 27.4477 53.5697 27.0968C53.1819 26.8486 52.8497 26.4084 52.6827 25.9042L54.0689 25.3594C54.1246 25.6386 54.259 25.8635 54.426 25.9993C54.6084 26.1505 54.8388 26.2475 55.1863 26.2475C55.5338 26.2475 55.7642 26.1524 55.9466 25.9993C56.1136 25.8635 56.248 25.6386 56.3037 25.3594L57.7052 25.9042Z" fill="black"/>
<path fill-rule="evenodd" clip-rule="evenodd" d="M62.8438 37.771V34.7558H62.7651C61.3635 34.7558 60.5859 34.1721 60.2308 33.8192C59.7873 33.3868 59.3438 32.6442 59.3438 31.5079C59.3438 30.2766 59.8986 29.4913 60.4132 29.0763C61.0237 28.5877 61.9337 28.324 62.7574 28.324H62.8515V25.332H64.8482V28.324H64.9442C65.7602 28.324 66.6798 28.5877 67.2884 29.0763C67.803 29.4932 68.3578 30.2766 68.3578 31.5079C68.3578 32.6442 67.9143 33.3791 67.4708 33.8192C67.1137 34.1721 66.3381 34.7558 64.9365 34.7558H64.8578V37.771H62.8457H62.8438ZM62.9398 29.9469C62.4732 29.9237 61.9817 30.0827 61.6957 30.3794C61.4576 30.6198 61.2925 31.0192 61.2925 31.5156C61.2925 32.012 61.4595 32.4115 61.6957 32.6597C61.9568 32.9563 62.4329 33.1483 62.9398 33.1309V29.9469ZM64.7445 33.1386C65.2591 33.1541 65.7275 32.9544 65.9886 32.6674C66.2267 32.4192 66.3918 32.012 66.3918 31.5234C66.3918 31.0348 66.2248 30.6276 65.9886 30.3871C65.6949 30.0904 65.213 29.9237 64.7445 29.9547V33.1386Z" fill="black"/>
<path fill-rule="evenodd" clip-rule="evenodd" d="M72.4454 37.771V34.7558H72.3666C70.9651 34.7558 70.1875 34.1721 69.8323 33.8192C69.3888 33.3868 68.9453 32.6442 68.9453 31.5079C68.9453 30.2766 69.5002 29.4913 70.0147 29.0763C70.6253 28.5877 71.5353 28.324 72.359 28.324H72.453V25.332H74.4498V28.324H74.5458C75.3617 28.324 76.2814 28.5877 76.89 29.0763C77.4045 29.4932 77.9594 30.2766 77.9594 31.5079C77.9594 32.6442 77.5159 33.3791 77.0724 33.8192C76.7153 34.1721 75.9396 34.7558 74.5381 34.7558H74.4594V37.771H72.4473H72.4454ZM72.5413 29.9469C72.0748 29.9237 71.5833 30.0827 71.2972 30.3794C71.0592 30.6198 70.894 31.0192 70.894 31.5156C70.894 32.012 71.0611 32.4115 71.2972 32.6597C71.5583 32.9563 72.0345 33.1483 72.5413 33.1309V29.9469ZM74.348 33.1386C74.8625 33.1541 75.331 32.9544 75.5921 32.6674C75.8302 32.4192 75.9953 32.012 75.9953 31.5234C75.9953 31.0348 75.8283 30.6276 75.5921 30.3871C75.2984 30.0904 74.8165 29.9237 74.348 29.9547V33.1386Z" fill="black"/>
<path fill-rule="evenodd" clip-rule="evenodd" d="M83.5847 28.4243H85.5814V34.6641H83.5847V33.9117C83.0452 34.7514 82.2695 34.8793 81.755 34.8793C80.8679 34.8793 80.123 34.6544 79.4414 33.9273C78.7925 33.2311 78.5391 32.4148 78.5391 31.5907C78.5391 30.5436 78.9269 29.6459 79.4971 29.07C80.0366 28.5251 80.7873 28.2148 81.6436 28.2148C82.1658 28.2148 83.0144 28.3428 83.5847 29.1262V28.4223V28.4243ZM81.0503 30.4001C80.8449 30.6076 80.5915 30.976 80.5915 31.5364C80.5915 32.0968 80.8295 32.4555 81.0043 32.6572C81.2807 32.9539 81.7089 33.1458 82.185 33.1458C82.5882 33.1458 82.9607 32.9771 83.2218 32.7134C83.4829 32.4652 83.7056 32.0735 83.7056 31.5384C83.7056 31.0904 83.5386 30.6735 83.2467 30.3943C82.9453 30.0977 82.5018 29.9619 82.137 29.9619C81.7166 29.9542 81.3134 30.1384 81.0523 30.4021L81.0503 30.4001Z" fill="black"/>
<path fill-rule="evenodd" clip-rule="evenodd" d="M88.778 28.4231V31.9909L91.4083 28.4231H93.261V34.6629H91.2643V31.0388L88.634 34.6629H86.7812V28.4231H88.778ZM92.5315 25.9042C92.3644 26.4084 92.0323 26.8408 91.6444 27.0968C91.1222 27.4497 90.481 27.4884 90.0202 27.4884C89.5594 27.4884 88.9277 27.4477 88.3959 27.0968C88.0081 26.8486 87.6759 26.4084 87.5089 25.9042L88.8951 25.3594C88.9508 25.6386 89.0852 25.8635 89.2522 25.9993C89.4346 26.1505 89.665 26.2475 90.0125 26.2475C90.36 26.2475 90.5904 26.1524 90.7728 25.9993C90.9398 25.8635 91.0742 25.6386 91.1299 25.3594L92.5315 25.9042Z" fill="black"/>
<path fill-rule="evenodd" clip-rule="evenodd" d="M94.2714 28.9594C94.5325 28.7907 94.9606 28.5677 95.2928 28.4398C95.7593 28.2711 96.2758 28.2148 96.75 28.2148C97.0822 28.2148 98.2149 28.2381 98.8408 28.8547C99.1902 29.1902 99.2997 29.5819 99.2997 29.9988C99.2997 30.3904 99.2286 30.7434 98.9272 31.0633C98.7775 31.2145 98.5951 31.3425 98.405 31.4162C98.8639 31.5287 99.1499 31.7769 99.2363 31.8641C99.5378 32.1608 99.6491 32.4962 99.6491 32.8957C99.6491 33.3281 99.5147 33.7915 99.1096 34.1987C98.5874 34.7184 97.8655 34.8716 96.8364 34.8716C96.2815 34.8716 95.7036 34.7998 95.1488 34.5924C94.6093 34.3849 94.2061 34.0727 94.0391 33.937L94.8858 32.6087C95.1085 32.8007 95.4003 33.0004 95.646 33.1129C95.9072 33.2253 96.2796 33.3048 96.6041 33.3048C96.8268 33.3048 97.1263 33.2641 97.3241 33.1536C97.5621 33.0178 97.6005 32.8181 97.6005 32.6824C97.6005 32.4749 97.4892 32.3469 97.3068 32.2655C97.1398 32.1938 96.8076 32.153 96.5868 32.153H95.8419V30.786H96.4121C96.5945 30.786 96.967 30.7627 97.157 30.6735C97.3951 30.5611 97.4508 30.3769 97.4508 30.2567C97.4508 30.1442 97.3951 29.96 97.1494 29.8495C97.0534 29.8087 96.8556 29.737 96.5235 29.737C96.1913 29.737 95.9686 29.7932 95.7075 29.9057C95.4464 30.0182 95.2409 30.1461 95.0413 30.3129L94.2656 28.9614L94.2714 28.9594Z" fill="black"/>
<path fill-rule="evenodd" clip-rule="evenodd" d="M106.872 31.8951H102.262C102.262 32.2305 102.389 32.6785 102.634 32.9596C102.936 33.2951 103.354 33.3513 103.656 33.3513C103.957 33.3513 104.249 33.2951 104.456 33.1671C104.479 33.1516 104.717 32.9984 104.884 32.6474L106.77 32.8394C106.493 33.7197 105.938 34.1832 105.581 34.4081C104.988 34.7687 104.322 34.8715 103.625 34.8715C102.698 34.8715 101.882 34.7028 101.162 33.9757C100.622 33.4308 100.234 32.6087 100.234 31.5674C100.234 30.6716 100.551 29.7505 101.177 29.1029C101.922 28.3505 102.857 28.207 103.546 28.207C104.236 28.207 105.234 28.335 106.002 29.1436C106.739 29.927 106.874 30.9042 106.874 31.6799V31.8951H106.872ZM105.032 30.6948C105.017 30.6386 104.921 30.2469 104.629 29.9677C104.406 29.7602 104.09 29.6148 103.686 29.6148C103.172 29.6148 102.87 29.8223 102.673 30.022C102.523 30.1907 102.379 30.4137 102.323 30.6948H105.032Z" fill="black"/>
<path fill-rule="evenodd" clip-rule="evenodd" d="M107.773 28.4219H109.77V30.5897H112.003V28.4219H114V34.6617H112.003V32.2146H109.77V34.6617H107.773V28.4219Z" fill="black"/>
<path fill-rule="evenodd" clip-rule="evenodd" d="M31.6847 45.9521C31.6847 49.8399 29.5459 52 25.6964 52H5.98828C2.13881 52 0 49.8399 0 45.9521V26.0479C0 22.1601 2.13881 20 5.98828 20H25.7041C29.5459 20 31.6847 22.1601 31.6847 26.0479V45.9521Z" fill="#FEE600"/>
<path fill-rule="evenodd" clip-rule="evenodd" d="M20.374 34.4388V31.3829L21.4665 30.2796V32.9283L22.4168 33.8881L26.2433 30.0236L27.186 30.9757C27.1783 30.2563 27.0362 28.168 25.2852 26.4325C23.3998 24.5924 21.357 25.4242 20.6601 26.1281L16.8413 29.9848L17.8148 30.9679L15.843 32.9768L13.8712 30.9854L14.8446 30.0023L11.0259 26.1455C10.3289 25.4417 8.28611 24.6098 6.40074 26.45C4.64976 28.1854 4.50768 30.2738 4.5 30.9931L5.44269 30.0411L9.26912 33.9056L10.2195 32.9458V30.297L11.3119 31.4003V34.4563L12.8479 35.9997L5.27565 43.6473L8.26883 46.6625L15.8411 39.0227L23.4133 46.6703L26.4084 43.6551L18.8362 35.9997L20.3721 34.4388H20.374Z" fill="#2B2D33"/>
</g>
<defs>
<clipPath id="clip0_3155_60605">
<rect width="114" height="72" fill="white"/>
</clipPath>
</defs>
</svg>
